<svg width="43" height="43" viewBox="0 0 43 43" fill="none" xmlns="http://www.w3.org/2000/svg">
<path d="M41.4589 9.24475C41.0286 8.53204 40.3811 8.09046 39.5535 7.88053C38.6888 7.66123 37.7161 7.70395 36.6069 7.99451C35.5138 8.28078 34.4965 8.67312 33.5742 9.14424L33.5373 9.13489C33.3575 9.22628 32.7855 9.55115 31.7941 10.1414C30.8023 10.7319 29.9721 11.2264 29.2937 11.6613L14.4646 3.04418C14.11 2.83813 13.7478 2.86319 13.4241 3.05431L10.0846 5.02682C9.78437 5.20419 9.63249 5.45896 9.5894 5.82145C9.54696 6.18162 9.66056 6.46649 9.93186 6.71113L20.9268 16.6269L12.6658 21.5608L7.30242 20.3964C7.04262 20.3402 6.80053 20.366 6.54723 20.5182L3.24464 22.5C2.94458 22.68 2.74589 22.9216 2.70317 23.3222C2.69707 23.7317 2.83428 24.0405 3.15596 24.2395L8.96369 28.591L10.021 35.771C10.0735 36.1272 10.2535 36.3976 10.6168 36.5876L10.8004 36.6342C11.0763 36.7041 11.339 36.673 11.5925 36.5217L14.8905 34.5582C15.1442 34.4075 15.307 34.1939 15.3759 33.9571L16.9084 28.6871L25.1648 23.7715L28.6598 38.1685C28.7461 38.5233 28.942 38.7589 29.2789 38.8932C29.618 39.0285 29.9222 38.9787 30.2228 38.7996L33.5208 36.8361C33.8667 36.6302 34.0562 36.3408 34.044 35.9313L33.5368 18.7875L37.6879 16.3158C38.4028 15.8902 39.2303 15.2822 40.162 14.2804C40.6304 13.7772 41.0117 13.2636 41.318 12.7331C41.9195 11.6928 42.1182 10.3359 41.4589 9.24475ZM36.617 14.5171L31.9535 17.3092C31.562 17.5437 31.4195 17.83 31.4303 18.2141L31.901 35.3486L30.3376 36.2641L26.8512 21.9086C26.7654 21.5539 26.5726 21.3091 26.2691 21.1933C25.9386 21.0309 25.6209 21.048 25.2976 21.2405L15.4732 27.0896C15.2656 27.2131 15.1177 27.4108 14.9924 27.6726L13.4599 32.9423L11.864 33.9085L10.9504 27.8613C10.9419 27.5851 10.8131 27.3436 10.5613 27.1557L5.67175 23.507L7.28134 22.5644L12.631 23.7057C12.9578 23.7302 13.2017 23.6939 13.3862 23.584L23.2106 17.7349C23.5338 17.5428 23.7003 17.2718 23.7156 16.9035C23.758 16.5813 23.6345 16.2957 23.3637 16.0507L12.4102 6.12592L13.9553 5.20574L28.7941 13.786C29.1266 13.9785 29.4472 13.991 29.839 13.7574L31.8226 12.5767L33.6398 11.5105L34.4237 11.0435L34.5069 11.0253C36.3879 10.0926 38.0972 9.68444 39.0355 9.92245C39.3664 10.0064 39.5687 10.1358 39.6232 10.3063C40.4106 11.6025 37.4345 14.0277 36.617 14.5171Z" fill="#149926"/>
</svg>
