<svg width="20" height="20" viewBox="0 0 20 20" fill="none" xmlns="http://www.w3.org/2000/svg">
<g clip-path="url(#clip0_1_140)">
<path d="M19.9755 9.87454C19.9671 9.85407 19.9526 9.8379 19.9405 9.81969C19.9297 9.80325 19.923 9.78492 19.909 9.7702L13.242 2.76992C13.1144 2.63629 12.9035 2.63156 12.7707 2.75836C12.6372 2.88532 12.632 3.09626 12.7589 3.22955L18.8896 9.66664H0.333333C0.149068 9.66664 0 9.8159 0 9.99997C0 10.184 0.149107 10.3333 0.333333 10.3333H18.8896L12.7589 16.7704C12.632 16.9037 12.6372 17.1147 12.7707 17.2416C12.8351 17.3031 12.9178 17.3336 13.0005 17.3336C13.0884 17.3336 13.1763 17.2989 13.242 17.2301L19.9089 10.2298C19.923 10.215 19.9297 10.1967 19.9405 10.1803C19.9525 10.1621 19.9671 10.1459 19.9754 10.1254C20.0082 10.045 20.0082 9.95501 19.9755 9.87454Z" fill="black"/>
</g>
<defs>
<clipPath id="clip0_1_140">
<rect width="20" height="20" fill="white"/>
</clipPath>
</defs>
</svg>
