<svg width="20" height="20" viewBox="0 0 20 20" fill="none" xmlns="http://www.w3.org/2000/svg">
<path d="M0.0245319 10.1255C0.0328525 10.1459 0.047423 10.1621 0.0594938 10.1803C0.0703145 10.1968 0.0769947 10.2151 0.0910187 10.2298L6.75796 17.2301C6.88558 17.3637 7.09653 17.3684 7.22935 17.2416C7.36283 17.1147 7.36802 16.9037 7.24106 16.7704L1.11036 10.3334L19.6667 10.3334C19.8509 10.3334 20 10.1841 20 10C20 9.81596 19.8509 9.66669 19.6667 9.66669L1.11036 9.66669L7.24106 3.22961C7.36802 3.09632 7.36283 2.88534 7.22935 2.75838C7.16489 2.69685 7.08219 2.66642 6.99953 2.66642C6.91164 2.66642 6.82374 2.70107 6.758 2.76994L0.091058 9.77021C0.077034 9.78498 0.0703148 9.80326 0.0595331 9.81971C0.0474623 9.83791 0.0329297 9.85408 0.02457 9.87455C-0.00820469 9.95499 -0.00820378 10.045 0.0245319 10.1255Z" fill="black"/>
</svg>
