<svg width="20" height="20" viewBox="0 0 20 20" fill="none" xmlns="http://www.w3.org/2000/svg">
<g clip-path="url(#clip0_1_226)">
<path d="M10.1255 19.9755C10.1459 19.9671 10.1621 19.9526 10.1803 19.9405C10.1968 19.9297 10.2151 19.923 10.2298 19.909L17.2301 13.242C17.3637 13.1144 17.3685 12.9035 17.2417 12.7707C17.1147 12.6372 16.9037 12.632 16.7705 12.7589L10.3334 18.8896L10.3334 0.333333C10.3334 0.149068 10.1841 0 10 0C9.81597 0 9.66671 0.149107 9.66671 0.333333L9.66671 18.8896L3.22962 12.7589C3.09633 12.632 2.88535 12.6372 2.75839 12.7707C2.69686 12.8351 2.66643 12.9178 2.66643 13.0005C2.66643 13.0884 2.70108 13.1763 2.76995 13.242L9.77022 19.9089C9.78499 19.923 9.80327 19.9297 9.81972 19.9405C9.83792 19.9525 9.8541 19.9671 9.87457 19.9754C9.955 20.0082 10.045 20.0082 10.1255 19.9755Z" fill="black"/>
</g>
<defs>
<clipPath id="clip0_1_226">
<rect width="20" height="20" fill="white" transform="matrix(0 1 -1 0 20 0)"/>
</clipPath>
</defs>
</svg>
