<svg width="38" height="38" viewBox="0 0 38 38" fill="none" xmlns="http://www.w3.org/2000/svg">
<path d="M28.1667 9.8335H28.1833M10.6667 2.3335H27.3333C31.9357 2.3335 35.6667 6.06446 35.6667 10.6668V27.3335C35.6667 31.9359 31.9357 35.6668 27.3333 35.6668H10.6667C6.0643 35.6668 2.33334 31.9359 2.33334 27.3335V10.6668C2.33334 6.06446 6.0643 2.3335 10.6667 2.3335ZM25.6667 17.9502C25.8724 19.3372 25.6354 20.7539 24.9896 21.9985C24.3438 23.2432 23.3219 24.2525 22.0694 24.883C20.8169 25.5134 19.3974 25.7328 18.013 25.5101C16.6286 25.2873 15.3496 24.6336 14.3581 23.6421C13.3665 22.6506 12.7129 21.3716 12.4901 19.9872C12.2673 18.6028 12.4868 17.1833 13.1172 15.9308C13.7477 14.6783 14.757 13.6564 16.0017 13.0106C17.2463 12.3647 18.6629 12.1278 20.05 12.3335C21.4649 12.5433 22.7748 13.2026 23.7862 14.214C24.7976 15.2254 25.4569 16.5353 25.6667 17.9502Z" stroke="#009951" stroke-width="4" stroke-linecap="round" stroke-linejoin="round"/>
</svg>
