<svg width="2385" height="1499" viewBox="0 0 2385 1499" fill="none" xmlns="http://www.w3.org/2000/svg">
<path d="M70.7997 651.2H489.8C491.9 647.3 494.1 643.1 496.4 639C507.085 620.379 523.675 605.854 543.543 597.722C563.412 589.59 585.425 588.315 606.1 594.1C649.1 606 677.5 645.1 676.3 690.7C675.1 733.8 643.8 771.5 601.2 781.1C560.2 790.3 517.4 771.9 496.7 734.7C491.7 725.6 486.1 723.3 476.4 723.3C346.466 723.5 216.566 723.5 86.6998 723.3H70.5998V1448.4C70.5998 1453.6 70.7997 1458.8 70.4997 1464C69.0997 1484.6 53.5998 1499.3 33.9998 1498.7C14.3998 1498.1 0.799739 1483.2 0.299739 1462.8C0.099739 1457.2 0.199763 1451.5 0.199763 1445.9C0.199763 1179.6 0.599751 913.3 -0.000248818 647C-0.200249 563.8 17.1998 484.7 53.4998 410.4C136.5 240.6 270.4 131.7 455.4 92.4998C769.8 25.8998 1062.3 224.6 1134.1 520.8C1145 566.1 1149.9 612.3 1150 658.9V919.5C1150 1117.8 1264.2 1287.4 1427.1 1369.3C1508.5 1410.1 1594.8 1428 1685.6 1422C1910.3 1407.1 2095 1249 2145.2 1029.1C2153.7 992.2 2157.2 954.7 2157.2 916.7C2157.2 713.9 2157.23 511.066 2157.3 308.2V295C2152.6 297.3 2149.2 298.9 2146 300.6C2130.9 308.5 2115.3 309.9 2099.3 304.4C2081.89 298.479 2066.53 287.727 2055 273.4C2041.2 256.4 2039.4 237.5 2050.5 218.9C2056.7 208.7 2065.7 200.1 2073.7 191C2076.5 187.9 2080.1 185.4 2085.1 181.2C2080.9 180.7 2078.6 180.3 2076.3 180.2C2045.1 178.6 2023.1 163.1 2010.3 134.9C1998.7 109.3 1997 82.0998 1998.9 54.4998C1999.6 44.5998 2000.9 34.4998 2003.7 25.0998C2010 4.09981 2024.8 -3.5002 2046 1.9998C2061 5.7998 2074.1 13.4998 2086.6 22.1998C2116.9 42.8998 2143.1 68.2998 2168.5 94.5998L2192.3 119.9C2195.5 115.7 2197.9 112.1 2200.8 109C2226.4 81.1998 2252.8 53.9998 2283.3 31.5998C2296.5 21.7998 2311.1 13.8998 2325.4 5.79979C2330.2 3.09979 2336 1.79979 2341.5 0.799791C2357.5 -2.30021 2369.8 3.8998 2376.4 18.8998C2379.1 24.837 2380.92 31.1369 2381.8 37.5998C2385.7 65.7998 2385.7 93.8998 2377.5 121.5C2366.4 158.7 2342.4 177.6 2303.9 180.3C2302.7 180.4 2301.5 180.8 2298.7 181.3C2301.8 184.3 2304.3 186.4 2306.4 188.8C2315.2 198.8 2325.3 208.1 2332.3 219.3C2343.5 237.4 2341.4 256 2328.2 272.7C2316.5 287.425 2300.81 298.466 2283 304.5C2269.3 309.377 2254.23 308.731 2241 302.7C2238 301.3 2234.8 300.2 2230.2 298.5V315C2230.2 516.6 2231.5 718.1 2229.9 919.7C2227.8 1178.8 2064.9 1383.3 1848.1 1461.4C1774.1 1488 1697.6 1498.3 1618.9 1493.9C1370.3 1480 1155 1303 1094.4 1057.1C1083.37 1011.49 1077.83 964.725 1077.9 917.8C1077.7 828.8 1078.2 739.7 1077.7 650.7C1076.6 453.1 959.2 274.3 778.3 194.4C700.1 159.8 618.3 146.4 533 153C318.6 169.6 131.5 326 82.3997 545.2C74.6997 579.6 70.1997 614.4 70.7997 651.2Z" fill="black"/>
</svg>
